<?xml version="1.0" encoding="UTF-8" standalone="no"?>
<!DOCTYPE svg PUBLIC "-//W3C//DTD SVG 1.1//EN" "http://www.w3.org/Graphics/SVG/1.1/DTD/svg11.dtd">
<svg width="100%" height="100%" viewBox="0 0 2534 1546" version="1.1" xmlns="http://www.w3.org/2000/svg" xmlns:xlink="http://www.w3.org/1999/xlink" xml:space="preserve" xmlns:serif="http://www.serif.com/" style="opacity:0.06;fill-rule:evenodd;clip-rule:evenodd;stroke-linejoin:round;stroke-miterlimit:2;">
    <g transform="matrix(1,0,0,1,-1738.72,-1107.15)">
        <g transform="matrix(1,0,0,1,2098.95,1258.13)">
            <g transform="matrix(1,0,0,1,7.12088,-464.216)">
                <g>
                    <g transform="matrix(-3.45874,0,0,3.45874,2953.71,-526.564)">
                        <g>
                            <g transform="matrix(0.976572,-1.66533e-16,-5.55112e-17,0.976572,-8589.37,-4220.84)">
                                <path d="M9224.34,4962.41C9222.68,4968.21 9188.44,4967.52 9141.37,4954.9C9094.15,4942.25 9064.34,4925.73 9065.78,4919.86L9079.86,4867.34L9031.35,4834.53C9029.25,4833.11 9028.21,4830.55 9028.73,4828.07C9029.26,4825.58 9031.23,4823.66 9033.73,4823.2L9181.1,4796.32C9182.94,4795.98 9184.83,4796.49 9186.26,4797.7L9300.93,4894.72C9302.87,4896.36 9303.62,4899.02 9302.83,4901.43C9302.04,4903.85 9299.86,4905.55 9297.33,4905.73L9277.4,4907.13L9271.17,4930.39C9274.09,4932.81 9275.5,4936.79 9274.46,4940.69C9273.57,4944 9271.12,4946.48 9268.11,4947.54L9264.3,4976.07C9264.13,4977.34 9263.42,4978.48 9262.36,4979.19C9261.29,4979.9 9259.97,4980.12 9258.74,4979.78C9255.81,4979 9252.11,4978.01 9249.19,4977.23C9247.96,4976.9 9246.92,4976.05 9246.35,4974.9C9245.79,4973.75 9245.74,4972.42 9246.23,4971.23L9257.2,4944.61C9255.12,4942.19 9254.24,4938.82 9255.13,4935.51C9256.17,4931.61 9259.39,4928.87 9263.12,4928.23L9268.61,4907.76L9238.55,4909.88L9224.34,4962.41C9224.35,4962.39 9224.34,4962.41 9224.34,4962.41Z" style="fill:rgb(248,249,249);"/>
                            </g>
                            <g transform="matrix(1.00711,0.269854,-0.252755,0.943296,-131.064,-963.538)">
                                <path d="M903.99,1375.98C896.581,1373.05 885.544,1370.08 872.183,1367.89C865.224,1366.75 857.651,1365.87 849.625,1365.26C842.4,1364.72 834.819,1364.38 826.997,1364.52C826.997,1364.52 826.772,1364.52 826.772,1364.52C817.3,1364.36 808.183,1364.9 799.628,1365.7C789.757,1366.62 780.652,1367.95 772.648,1369.6C763.461,1371.5 755.76,1373.69 750.114,1375.87L750.114,1371.35C755.244,1366.47 762.54,1362.62 770.602,1360.26C780.284,1357.43 791.626,1354.92 804.056,1353.42C811.305,1352.55 818.923,1352.13 826.772,1352.02C826.772,1352.02 826.997,1352.02 826.997,1352.02C836.908,1352.2 846.446,1352.92 855.347,1354.24C865.58,1355.75 875.069,1357.52 883.153,1360.32C897.264,1365.21 899.575,1367.55 904,1371.36" style="fill:white;"/>
                            </g>
                            <g transform="matrix(0.992618,0.265971,-6.11052,22.8048,10515.8,-53305.2)">
                                <ellipse cx="4015.03" cy="2316.9" rx="70.583" ry="0.53" style="fill:white;"/>
                            </g>
                        </g>
                    </g>
                    <g transform="matrix(1.49832,-0.863566,0.863566,1.49832,-180.047,940.21)">
                        <g>
                            <g transform="matrix(0.976572,-1.66533e-16,-5.55112e-17,0.976572,-8589.37,-4220.84)">
                                <path d="M9224.34,4962.41C9222.68,4968.21 9188.44,4967.52 9141.37,4954.9C9094.15,4942.25 9064.34,4925.73 9065.78,4919.86L9079.86,4867.34L9031.35,4834.53C9029.25,4833.11 9028.21,4830.55 9028.73,4828.07C9029.26,4825.58 9031.23,4823.66 9033.73,4823.2L9181.1,4796.32C9182.94,4795.98 9184.83,4796.49 9186.26,4797.7L9300.93,4894.72C9302.87,4896.36 9303.62,4899.02 9302.83,4901.43C9302.04,4903.85 9299.86,4905.55 9297.33,4905.73L9277.4,4907.13L9271.17,4930.39C9274.09,4932.81 9275.5,4936.79 9274.46,4940.69C9273.57,4944 9271.12,4946.48 9268.11,4947.54L9264.3,4976.07C9264.13,4977.34 9263.42,4978.48 9262.36,4979.19C9261.29,4979.9 9259.97,4980.12 9258.74,4979.78C9255.81,4979 9252.11,4978.01 9249.19,4977.23C9247.96,4976.9 9246.92,4976.05 9246.35,4974.9C9245.79,4973.75 9245.74,4972.42 9246.23,4971.23L9257.2,4944.61C9255.12,4942.19 9254.24,4938.82 9255.13,4935.51C9256.17,4931.61 9259.39,4928.87 9263.12,4928.23L9268.61,4907.76L9238.55,4909.88L9224.34,4962.41C9224.35,4962.39 9224.34,4962.41 9224.34,4962.41Z" style="fill:rgb(248,249,249);"/>
                            </g>
                            <g transform="matrix(1.00711,0.269854,-0.252755,0.943296,-131.064,-963.538)">
                                <path d="M903.99,1375.98C896.581,1373.05 885.544,1370.08 872.183,1367.89C865.224,1366.75 857.651,1365.87 849.625,1365.26C842.4,1364.72 834.819,1364.38 826.997,1364.52C826.997,1364.52 826.772,1364.52 826.772,1364.52C817.3,1364.36 808.183,1364.9 799.628,1365.7C789.757,1366.62 780.652,1367.95 772.648,1369.6C763.461,1371.5 755.76,1373.69 750.114,1375.87L750.114,1371.35C755.244,1366.47 762.54,1362.62 770.602,1360.26C780.284,1357.43 791.626,1354.92 804.056,1353.42C811.305,1352.55 818.923,1352.13 826.772,1352.02C826.772,1352.02 826.997,1352.02 826.997,1352.02C836.908,1352.2 846.446,1352.92 855.347,1354.24C865.58,1355.75 875.069,1357.52 883.153,1360.32C897.264,1365.21 899.575,1367.55 904,1371.36" style="fill:white;"/>
                            </g>
                            <g transform="matrix(0.992618,0.265971,-6.11052,22.8048,10515.8,-53305.2)">
                                <ellipse cx="4015.03" cy="2316.9" rx="70.583" ry="0.53" style="fill:white;"/>
                            </g>
                        </g>
                    </g>
                    <g transform="matrix(-2.92322,-1.8487,-1.8487,2.92322,2153.21,630.676)">
                        <g>
                            <g transform="matrix(0.976572,-1.66533e-16,-5.55112e-17,0.976572,-8589.37,-4220.84)">
                                <path d="M9224.34,4962.41C9222.68,4968.21 9188.44,4967.52 9141.37,4954.9C9094.15,4942.25 9064.34,4925.73 9065.78,4919.86L9079.86,4867.34L9031.35,4834.53C9029.25,4833.11 9028.21,4830.55 9028.73,4828.07C9029.26,4825.58 9031.23,4823.66 9033.73,4823.2L9181.1,4796.32C9182.94,4795.98 9184.83,4796.49 9186.26,4797.7L9300.93,4894.72C9302.87,4896.36 9303.62,4899.02 9302.83,4901.43C9302.04,4903.85 9299.86,4905.55 9297.33,4905.73L9277.4,4907.13L9271.17,4930.39C9274.09,4932.81 9275.5,4936.79 9274.46,4940.69C9273.57,4944 9271.12,4946.48 9268.11,4947.54L9264.3,4976.07C9264.13,4977.34 9263.42,4978.48 9262.36,4979.19C9261.29,4979.9 9259.97,4980.12 9258.74,4979.78C9255.81,4979 9252.11,4978.01 9249.19,4977.23C9247.96,4976.9 9246.92,4976.05 9246.35,4974.9C9245.79,4973.75 9245.74,4972.42 9246.23,4971.23L9257.2,4944.61C9255.12,4942.19 9254.24,4938.82 9255.13,4935.51C9256.17,4931.61 9259.39,4928.87 9263.12,4928.23L9268.61,4907.76L9238.55,4909.88L9224.34,4962.41C9224.35,4962.39 9224.34,4962.41 9224.34,4962.41Z" style="fill:rgb(248,249,249);"/>
                            </g>
                            <g transform="matrix(1.00711,0.269854,-0.252755,0.943296,-131.064,-963.538)">
                                <path d="M903.99,1375.98C896.581,1373.05 885.544,1370.08 872.183,1367.89C865.224,1366.75 857.651,1365.87 849.625,1365.26C842.4,1364.72 834.819,1364.38 826.997,1364.52C826.997,1364.52 826.772,1364.52 826.772,1364.52C817.3,1364.36 808.183,1364.9 799.628,1365.7C789.757,1366.62 780.652,1367.95 772.648,1369.6C763.461,1371.5 755.76,1373.69 750.114,1375.87L750.114,1371.35C755.244,1366.47 762.54,1362.62 770.602,1360.26C780.284,1357.43 791.626,1354.92 804.056,1353.42C811.305,1352.55 818.923,1352.13 826.772,1352.02C826.772,1352.02 826.997,1352.02 826.997,1352.02C836.908,1352.2 846.446,1352.92 855.347,1354.24C865.58,1355.75 875.069,1357.52 883.153,1360.32C897.264,1365.21 899.575,1367.55 904,1371.36" style="fill:white;"/>
                            </g>
                            <g transform="matrix(0.992618,0.265971,-6.11052,22.8048,10515.8,-53305.2)">
                                <ellipse cx="4015.03" cy="2316.9" rx="70.583" ry="0.53" style="fill:white;"/>
                            </g>
                        </g>
                    </g>
                    <g transform="matrix(2.5508,-1.25076,1.25076,2.5508,-1018.88,110.326)">
                        <g>
                            <g transform="matrix(0.976572,-1.66533e-16,-5.55112e-17,0.976572,-8589.37,-4220.84)">
                                <path d="M9224.34,4962.41C9222.68,4968.21 9188.44,4967.52 9141.37,4954.9C9094.15,4942.25 9064.34,4925.73 9065.78,4919.86L9079.86,4867.34L9031.35,4834.53C9029.25,4833.11 9028.21,4830.55 9028.73,4828.07C9029.26,4825.58 9031.23,4823.66 9033.73,4823.2L9181.1,4796.32C9182.94,4795.98 9184.83,4796.49 9186.26,4797.7L9300.93,4894.72C9302.87,4896.36 9303.62,4899.02 9302.83,4901.43C9302.04,4903.85 9299.86,4905.55 9297.33,4905.73L9277.4,4907.13L9271.17,4930.39C9274.09,4932.81 9275.5,4936.79 9274.46,4940.69C9273.57,4944 9271.12,4946.48 9268.11,4947.54L9264.3,4976.07C9264.13,4977.34 9263.42,4978.48 9262.36,4979.19C9261.29,4979.9 9259.97,4980.12 9258.74,4979.78C9255.81,4979 9252.11,4978.01 9249.19,4977.23C9247.96,4976.9 9246.92,4976.05 9246.35,4974.9C9245.79,4973.75 9245.74,4972.42 9246.23,4971.23L9257.2,4944.61C9255.12,4942.19 9254.24,4938.82 9255.13,4935.51C9256.17,4931.61 9259.39,4928.87 9263.12,4928.23L9268.61,4907.76L9238.55,4909.88L9224.34,4962.41C9224.35,4962.39 9224.34,4962.41 9224.34,4962.41Z" style="fill:rgb(248,249,249);"/>
                            </g>
                            <g transform="matrix(1.00711,0.269854,-0.252755,0.943296,-131.064,-963.538)">
                                <path d="M903.99,1375.98C896.581,1373.05 885.544,1370.08 872.183,1367.89C865.224,1366.75 857.651,1365.87 849.625,1365.26C842.4,1364.72 834.819,1364.38 826.997,1364.52C826.997,1364.52 826.772,1364.52 826.772,1364.52C817.3,1364.36 808.183,1364.9 799.628,1365.7C789.757,1366.62 780.652,1367.95 772.648,1369.6C763.461,1371.5 755.76,1373.69 750.114,1375.87L750.114,1371.35C755.244,1366.47 762.54,1362.62 770.602,1360.26C780.284,1357.43 791.626,1354.92 804.056,1353.42C811.305,1352.55 818.923,1352.13 826.772,1352.02C826.772,1352.02 826.997,1352.02 826.997,1352.02C836.908,1352.2 846.446,1352.92 855.347,1354.24C865.58,1355.75 875.069,1357.52 883.153,1360.32C897.264,1365.21 899.575,1367.55 904,1371.36" style="fill:white;"/>
                            </g>
                            <g transform="matrix(0.992618,0.265971,-6.11052,22.8048,10515.8,-53305.2)">
                                <ellipse cx="4015.03" cy="2316.9" rx="70.583" ry="0.53" style="fill:white;"/>
                            </g>
                        </g>
                    </g>
                    <g transform="matrix(-1.62587,-0.79723,-0.79723,1.62587,2024.03,-29.3738)">
                        <g>
                            <g transform="matrix(0.976572,-1.66533e-16,-5.55112e-17,0.976572,-8589.37,-4220.84)">
                                <path d="M9224.34,4962.41C9222.68,4968.21 9188.44,4967.52 9141.37,4954.9C9094.15,4942.25 9064.34,4925.73 9065.78,4919.86L9079.86,4867.34L9031.35,4834.53C9029.25,4833.11 9028.21,4830.55 9028.73,4828.07C9029.26,4825.58 9031.23,4823.66 9033.73,4823.2L9181.1,4796.32C9182.94,4795.98 9184.83,4796.49 9186.26,4797.7L9300.93,4894.72C9302.87,4896.36 9303.62,4899.02 9302.83,4901.43C9302.04,4903.85 9299.86,4905.55 9297.33,4905.73L9277.4,4907.13L9271.17,4930.39C9274.09,4932.81 9275.5,4936.79 9274.46,4940.69C9273.57,4944 9271.12,4946.48 9268.11,4947.54L9264.3,4976.07C9264.13,4977.34 9263.42,4978.48 9262.36,4979.19C9261.29,4979.9 9259.97,4980.12 9258.74,4979.78C9255.81,4979 9252.11,4978.01 9249.19,4977.23C9247.96,4976.9 9246.92,4976.05 9246.35,4974.9C9245.79,4973.75 9245.74,4972.42 9246.23,4971.23L9257.2,4944.61C9255.12,4942.19 9254.24,4938.82 9255.13,4935.51C9256.17,4931.61 9259.39,4928.87 9263.12,4928.23L9268.61,4907.76L9238.55,4909.88L9224.34,4962.41C9224.35,4962.39 9224.34,4962.41 9224.34,4962.41Z" style="fill:rgb(248,249,249);"/>
                            </g>
                            <g transform="matrix(1.00711,0.269854,-0.252755,0.943296,-131.064,-963.538)">
                                <path d="M903.99,1375.98C896.581,1373.05 885.544,1370.08 872.183,1367.89C865.224,1366.75 857.651,1365.87 849.625,1365.26C842.4,1364.72 834.819,1364.38 826.997,1364.52C826.997,1364.52 826.772,1364.52 826.772,1364.52C817.3,1364.36 808.183,1364.9 799.628,1365.7C789.757,1366.62 780.652,1367.95 772.648,1369.6C763.461,1371.5 755.76,1373.69 750.114,1375.87L750.114,1371.35C755.244,1366.47 762.54,1362.62 770.602,1360.26C780.284,1357.43 791.626,1354.92 804.056,1353.42C811.305,1352.55 818.923,1352.13 826.772,1352.02C826.772,1352.02 826.997,1352.02 826.997,1352.02C836.908,1352.2 846.446,1352.92 855.347,1354.24C865.58,1355.75 875.069,1357.52 883.153,1360.32C897.264,1365.21 899.575,1367.55 904,1371.36" style="fill:white;"/>
                            </g>
                            <g transform="matrix(0.992618,0.265971,-6.11052,22.8048,10515.8,-53305.2)">
                                <ellipse cx="4015.03" cy="2316.9" rx="70.583" ry="0.53" style="fill:white;"/>
                            </g>
                        </g>
                    </g>
                    <g transform="matrix(2.90186,-0.107233,0.107233,2.90186,-924.221,-989.852)">
                        <g>
                            <g transform="matrix(0.976572,-1.66533e-16,-5.55112e-17,0.976572,-8589.37,-4220.84)">
                                <path d="M9224.34,4962.41C9222.68,4968.21 9188.44,4967.52 9141.37,4954.9C9094.15,4942.25 9064.34,4925.73 9065.78,4919.86L9079.86,4867.34L9031.35,4834.53C9029.25,4833.11 9028.21,4830.55 9028.73,4828.07C9029.26,4825.58 9031.23,4823.66 9033.73,4823.2L9181.1,4796.32C9182.94,4795.98 9184.83,4796.49 9186.26,4797.7L9300.93,4894.72C9302.87,4896.36 9303.62,4899.02 9302.83,4901.43C9302.04,4903.85 9299.86,4905.55 9297.33,4905.73L9277.4,4907.13L9271.17,4930.39C9274.09,4932.81 9275.5,4936.79 9274.46,4940.69C9273.57,4944 9271.12,4946.48 9268.11,4947.54L9264.3,4976.07C9264.13,4977.34 9263.42,4978.48 9262.36,4979.19C9261.29,4979.9 9259.97,4980.12 9258.74,4979.78C9255.81,4979 9252.11,4978.01 9249.19,4977.23C9247.96,4976.9 9246.92,4976.05 9246.35,4974.9C9245.79,4973.75 9245.74,4972.42 9246.23,4971.23L9257.2,4944.61C9255.12,4942.19 9254.24,4938.82 9255.13,4935.51C9256.17,4931.61 9259.39,4928.87 9263.12,4928.23L9268.61,4907.76L9238.55,4909.88L9224.34,4962.41C9224.35,4962.39 9224.34,4962.41 9224.34,4962.41Z" style="fill:rgb(248,249,249);"/>
                            </g>
                            <g transform="matrix(1.00711,0.269854,-0.252755,0.943296,-131.064,-963.538)">
                                <path d="M903.99,1375.98C896.581,1373.05 885.544,1370.08 872.183,1367.89C865.224,1366.75 857.651,1365.87 849.625,1365.26C842.4,1364.72 834.819,1364.38 826.997,1364.52C826.997,1364.52 826.772,1364.52 826.772,1364.52C817.3,1364.36 808.183,1364.9 799.628,1365.7C789.757,1366.62 780.652,1367.95 772.648,1369.6C763.461,1371.5 755.76,1373.69 750.114,1375.87L750.114,1371.35C755.244,1366.47 762.54,1362.62 770.602,1360.26C780.284,1357.43 791.626,1354.92 804.056,1353.42C811.305,1352.55 818.923,1352.13 826.772,1352.02C826.772,1352.02 826.997,1352.02 826.997,1352.02C836.908,1352.2 846.446,1352.92 855.347,1354.24C865.58,1355.75 875.069,1357.52 883.153,1360.32C897.264,1365.21 899.575,1367.55 904,1371.36" style="fill:white;"/>
                            </g>
                            <g transform="matrix(0.992618,0.265971,-6.11052,22.8048,10515.8,-53305.2)">
                                <ellipse cx="4015.03" cy="2316.9" rx="70.583" ry="0.53" style="fill:white;"/>
                            </g>
                        </g>
                    </g>
                    <g transform="matrix(1.68501,-0.703027,0.703027,1.68501,710.362,-13.6846)">
                        <g>
                            <g transform="matrix(0.976572,-1.66533e-16,-5.55112e-17,0.976572,-8589.37,-4220.84)">
                                <path d="M9224.34,4962.41C9222.68,4968.21 9188.44,4967.52 9141.37,4954.9C9094.15,4942.25 9064.34,4925.73 9065.78,4919.86L9079.86,4867.34L9031.35,4834.53C9029.25,4833.11 9028.21,4830.55 9028.73,4828.07C9029.26,4825.58 9031.23,4823.66 9033.73,4823.2L9181.1,4796.32C9182.94,4795.98 9184.83,4796.49 9186.26,4797.7L9300.93,4894.72C9302.87,4896.36 9303.62,4899.02 9302.83,4901.43C9302.04,4903.85 9299.86,4905.55 9297.33,4905.73L9277.4,4907.13L9271.17,4930.39C9274.09,4932.81 9275.5,4936.79 9274.46,4940.69C9273.57,4944 9271.12,4946.48 9268.11,4947.54L9264.3,4976.07C9264.13,4977.34 9263.42,4978.48 9262.36,4979.19C9261.29,4979.9 9259.97,4980.12 9258.74,4979.78C9255.81,4979 9252.11,4978.01 9249.19,4977.23C9247.96,4976.9 9246.92,4976.05 9246.35,4974.9C9245.79,4973.75 9245.74,4972.42 9246.23,4971.23L9257.2,4944.61C9255.12,4942.19 9254.24,4938.82 9255.13,4935.51C9256.17,4931.61 9259.39,4928.87 9263.12,4928.23L9268.61,4907.76L9238.55,4909.88L9224.34,4962.41C9224.35,4962.39 9224.34,4962.41 9224.34,4962.41Z" style="fill:rgb(248,249,249);"/>
                            </g>
                            <g transform="matrix(1.00711,0.269854,-0.252755,0.943296,-131.064,-963.538)">
                                <path d="M903.99,1375.98C896.581,1373.05 885.544,1370.08 872.183,1367.89C865.224,1366.75 857.651,1365.87 849.625,1365.26C842.4,1364.72 834.819,1364.38 826.997,1364.52C826.997,1364.52 826.772,1364.52 826.772,1364.52C817.3,1364.36 808.183,1364.9 799.628,1365.7C789.757,1366.62 780.652,1367.95 772.648,1369.6C763.461,1371.5 755.76,1373.69 750.114,1375.87L750.114,1371.35C755.244,1366.47 762.54,1362.62 770.602,1360.26C780.284,1357.43 791.626,1354.92 804.056,1353.42C811.305,1352.55 818.923,1352.13 826.772,1352.02C826.772,1352.02 826.997,1352.02 826.997,1352.02C836.908,1352.2 846.446,1352.92 855.347,1354.24C865.58,1355.75 875.069,1357.52 883.153,1360.32C897.264,1365.21 899.575,1367.55 904,1371.36" style="fill:white;"/>
                            </g>
                            <g transform="matrix(0.992618,0.265971,-6.11052,22.8048,10515.8,-53305.2)">
                                <ellipse cx="4015.03" cy="2316.9" rx="70.583" ry="0.53" style="fill:white;"/>
                            </g>
                        </g>
                    </g>
                </g>
            </g>
        </g>
    </g>
</svg>
